<?xml version="1.0" encoding="UTF-8" standalone="no"?>
<!-- Created with Inkscape (http://www.inkscape.org/) -->

<svg
   xmlns:dc="http://purl.org/dc/elements/1.1/"
   xmlns:cc="http://creativecommons.org/ns#"
   xmlns:rdf="http://www.w3.org/1999/02/22-rdf-syntax-ns#"
   xmlns:svg="http://www.w3.org/2000/svg"
   xmlns="http://www.w3.org/2000/svg"
   xmlns:sodipodi="http://sodipodi.sourceforge.net/DTD/sodipodi-0.dtd"
   xmlns:inkscape="http://www.inkscape.org/namespaces/inkscape"
   width="800"
   height="800"
   id="svg3059"
   version="1.1"
   inkscape:version="0.48.5 r10040"
   sodipodi:docname="logo5.svg">
  <defs
     id="defs3061" />
  <sodipodi:namedview
     id="base"
     pagecolor="#ffffff"
     bordercolor="#666666"
     borderopacity="1.0"
     inkscape:pageopacity="0.0"
     inkscape:pageshadow="2"
     inkscape:zoom="0.49497475"
     inkscape:cx="-52.487122"
     inkscape:cy="259.87579"
     inkscape:document-units="px"
     inkscape:current-layer="layer1"
     showgrid="false"
     inkscape:window-width="1280"
     inkscape:window-height="1004"
     inkscape:window-x="0"
     inkscape:window-y="1"
     inkscape:window-maximized="1"
     fit-margin-top="10"
     fit-margin-right="10"
     fit-margin-left="10"
     fit-margin-bottom="10" />
  <metadata
     id="metadata3064">
    <rdf:RDF>
      <cc:Work
         rdf:about="">
        <dc:format>image/svg+xml</dc:format>
        <dc:type
           rdf:resource="http://purl.org/dc/dcmitype/StillImage" />
        <dc:title />
      </cc:Work>
    </rdf:RDF>
  </metadata>
  <g
     inkscape:label="Calque 1"
     inkscape:groupmode="layer"
     id="layer1"
     transform="translate(-71.347988,254.05174)">
    <g
       id="g3059"
       transform="matrix(1.0029636,-0.72366426,0,1.5001519,45.901776,-30.923422)">
      <path
         inkscape:connector-curvature="0"
         id="path3092"
         d="m 192.0254,313.59491 -12.12183,-17.17259 -31.31473,-3.03046 -35.35533,15.15229 26.26396,21.2132 26.26397,10.10153 22.22335,0 32.32489,0 13.13198,-11.11168 -23.23351,-16.16244 z"
         style="fill:#000000;stroke:#000000;stroke-width:1px;stroke-linecap:butt;stroke-linejoin:miter;stroke-opacity:1" />
      <path
         d="m 162.16513,292.5214 c 1.70472,15.45303 9.31757,-55.69934 10.09968,-56.98254 2.73652,-4.48787 1.81114,-8.68815 3.17417,-12.29341 3.10403,-8.21114 3.63784,-13.85755 10.69374,-13.85755 3.28893,0 4.59499,1.08374 6.81978,5.35054 1.54795,2.96698 4.22167,8.44883 5.47306,12.11393 1.44443,4.22857 3.79833,9.94977 4.8334,11.10498 0.76641,0.85769 1.52701,1.50095 2.23644,1.88159 1.14438,0.61334 2.09106,-0.51195 2.85631,-1.38293 0.97691,-1.112 1.39792,-3.37754 2.30273,-6.39937 1.30371,-4.35989 2.72489,-9.5841 3.53317,-11.40751 1.39908,-3.15148 1.87591,-6.89137 3.38664,-8.70314 2.2283,-2.67111 5.13578,-2.85894 5.93592,-3.08499 4.47636,-1.26326 6.5116,3.08333 8.71664,5.89406 1.44327,1.84169 3.41571,5.55167 4.81596,10.52323 1.09437,3.88284 2.48764,7.4748 3.0703,9.71707 0.56289,2.16415 1.95267,5.63311 2.77607,9.79187 0.7478,3.77646 2.74931,6.6703 3.50991,8.46545 0,0 1.16416,4.66074 8.2433,8.92089 1.53515,0.92417 4.63802,2.42677 6.48951,3.38917 3.07611,1.59735 6.0557,1.38958 9.8494,0.73967 2.70513,0 4.1705,-5.5982 5.39978,-10.08109 0.72687,-2.6495 1.42351,-10.24231 1.89801,-12.39815 0.45938,-2.09767 -0.61523,-3.71995 0.30005,-5.55831 1.06995,-2.14587 1.70611,-2.26222 2.32366,-5.05966 1.32698,-5.99048 8.99692,-6.29299 13.30814,-6.29299 3.59365,0 3.13659,4.98652 9.23301,3.28113 3.49131,-0.97902 6.85585,0.64326 10.56231,2.04613 3.12147,1.18347 6.05571,2.5315 7.81415,5.47354 1.13741,1.90486 3.96116,11.44906 1.08391,11.85629 0.2768,0.4837 0.47916,1.35634 0.99669,1.83504 -0.64081,3.60027 -3.42967,1.03554 -4.97878,0.57345 -2.08757,-0.61833 -3.56108,0.0931 -5.6033,1.38459 -3.49131,2.22233 -8.59801,1.96303 -11.63924,5.58325 -2.58069,3.06837 -2.57603,9.91819 -3.77973,13.75615 -0.001,-0.002 -3.34245,12.29012 -10.63791,19.80813 -1.86893,1.92812 -5.52189,6.56559 -13.46747,8.31918 -3.56575,0.78787 -6.90121,0.8527 -10.56232,0.59174 -1.79217,-0.12301 -3.482,-0.25432 -5.27883,-0.28756 -1.05832,-0.0116 -4.43333,0.31249 -4.43333,0.31249 0,0 -0.0386,0.10826 -2.23216,1.99113 -64.06112,34.01031 -88.97125,36.30551 -89.12277,-10.91549 z"
         id="path11"
         inkscape:connector-curvature="0"
         sodipodi:nodetypes="cccscccccccccccccccccccccscccccccccccccccc"
         style="fill:#d45500" />
      <path
         id="path3068"
         d="m 156.76453,290.23181 c 1.21432,0 2.41356,0.0355 3.61279,0.0568 4.75923,-1.96492 10.26515,-3.76648 16.62335,-5.31474 0.56568,-0.17045 1.19924,-0.3267 1.87051,-0.47347 l 183.6639,-39.24147 -18.56174,-10.09209 c -4.46507,-2.41945 -5.64168,-5.24135 -3.34126,-7.94725 2.3155,-2.70116 7.82896,-4.962 15.54479,-6.35638 l 24.13554,-4.37252 c 5.06092,-0.92091 10.82328,-1.40385 16.66106,-1.40385 11.87921,0 22.95139,2.00279 28.89477,5.23188 l 91.23233,49.59633 86.14879,-18.40628 57.36715,-31.19479 c 5.94338,-3.22672 17.01556,-5.22951 28.90231,-5.22951 5.83024,0 11.60014,0.48531 16.66106,1.40385 l 24.128,4.37253 c 7.70829,1.39438 13.22929,3.65521 15.53725,6.35638 2.30796,2.7059 1.12381,5.52543 -3.33372,7.94251 L 590.5254,317.79743 v 71.61047 c 0,5.77164 -14.95649,10.46613 -33.35229,10.46613 h -27.86146 c -18.38827,0 -33.3523,-4.69449 -33.3523,-10.46613 v -71.61047 l -42.10143,-22.89007 -165.78098,35.42291 c -0.76177,0.26277 -1.59143,0.49714 -2.51914,0.70074 -11.04955,2.45259 -23.52461,4.03636 -36.66339,4.7655 -0.49026,0.34801 -0.9428,0.69838 -1.50847,1.03928 -9.526,5.82135 -28.41206,9.43869 -49.2893,9.43869 -8.74913,0 -17.49072,-0.66523 -25.29706,-1.92467 -44.0549,-7.1092 -71.41856,-21.1832 -71.41856,-36.72969 -0.0151,-9.58784 24.82943,-17.38831 55.38351,-17.38831 z m 242.94682,-65.16413 c -0.84474,-0.45691 -2.3155,-0.49242 -2.73788,-0.49242 -0.54304,0 -1.07101,0.0474 -1.55372,0.13258 l -24.13554,4.37252 c -0.92017,0.17045 -1.29728,0.41903 -1.44813,0.59895 -0.15839,0.17992 -0.22627,0.4569 0.30924,0.74808 l 13.35751,7.26782 29.56603,-5.35972 -13.35751,-7.26781 z m 132.54181,53.08583 10.99676,5.9776 25.22918,-13.71653 -36.22594,7.73893 z m 184.40306,-48.47894 c -0.15085,-0.17992 -0.52797,-0.42849 -1.46322,-0.59894 l -24.128,-4.37253 c -0.48271,-0.0852 -1.01067,-0.13257 -1.55372,-0.13257 -0.42992,0 -1.89313,0.0379 -2.73788,0.49004 l -13.36505,7.27019 29.56603,5.35735 13.3726,-7.27018 c 0.53551,-0.28409 0.46008,-0.56344 0.30924,-0.74336 z m -192.51109,84.47711 c 1.32746,0.72205 2.0289,1.53642 2.0289,2.36974 v 72.88411 c 0,0.54213 1.40287,0.98246 3.13762,0.98246 h 27.86146 c 1.7272,0 3.13762,-0.4427 3.13762,-0.98246 v -72.88411 c 0,-0.83332 0.70144,-1.65006 2.02889,-2.36974 l 115.45838,-62.77309 -29.56603,-5.35735 -91.90361,49.96327 c -2.69262,1.4654 -7.68566,2.36973 -13.07844,2.36973 -5.40033,0 -10.38582,-0.90433 -13.07845,-2.36973 l -91.92623,-49.96564 -29.56603,5.35972 115.46592,62.77309 z m -271.62285,11.59063 c 4.91762,-0.52556 9.65422,-1.21209 14.04387,-2.12353 0.81457,-0.28408 1.73474,-0.54213 2.75296,-0.75519 l 169.37868,-36.19467 -61.00258,-33.16917 -178.2862,38.08619 c -0.17347,0.0426 -0.37712,0.0876 -0.57322,0.12547 l -0.0603,0.0166 c -2.99431,0.63682 -5.69447,1.36833 -8.24379,2.14246 13.1237,3.18411 21.61639,8.15321 21.61639,13.7473 0,2.45496 4.32931,4.67792 11.29845,5.80005 15.84649,2.56149 26.0513,7.20863 29.07578,12.32451 z m -65.92019,10.17257 c 12.12811,1.95308 27.74079,0.34801 33.90289,-3.41374 6.35066,-3.87775 1.46322,-8.65036 -10.86099,-10.64368 -17.09852,-2.75561 -27.70307,-8.21003 -27.70307,-14.23734 0,-4.35832 -11.29845,-7.90227 -25.17639,-7.90227 -13.89302,0 -25.18392,3.54395 -25.18392,7.90227 0,11.97414 21.08088,22.81431 55.02148,28.29476 z"
         inkscape:connector-curvature="0" />
      <path
         sodipodi:nodetypes="ccscccsc"
         inkscape:connector-curvature="0"
         id="path3094"
         d="m 229.51309,314.5543 -17.97177,7.62034 c 0,0 -23.00156,2.59644 -31.21015,-0.0792 -8.20858,-2.67565 -16.59004,-15.57159 -16.59004,-15.57159 l -1.32582,-6.50285 28.158,-6.12405 c 0,0 10.64395,-0.81663 17.13391,2.62626 6.48996,3.44289 21.80587,18.03109 21.80587,18.03109 z"
         style="fill:#d45500;stroke:none" />
    </g>
    <g
       id="g3098"
       transform="translate(15.347993,-27.267796)">
      <g
         id="Killer_x5F_Action"
         transform="matrix(-3.3679998,-1.3084139,1.3084139,-3.3679998,168.04651,552.02288)">
        <g
           id="g6"
           display="none"
           style="display:none">
          <circle
             id="circle8"
             r="9.0319996"
             cy="15"
             cx="16"
             stroke-miterlimit="10"
             display="inline"
             d="m 25.032,15 c 0,4.988236 -4.043764,9.032 -9.032,9.032 -4.988236,0 -9.0319996,-4.043764 -9.0319996,-9.032 0,-4.988236 4.0437636,-9.0319996 9.0319996,-9.0319996 4.988236,0 9.032,4.0437636 9.032,9.0319996 z"
             sodipodi:cx="16"
             sodipodi:cy="15"
             sodipodi:rx="9.0319996"
             sodipodi:ry="9.0319996"
             style="fill:none;stroke:#000000;stroke-miterlimit:10;display:inline" />
          <g
             id="g10"
             display="inline"
             style="display:inline">
            <path
               id="path12"
               d="m 16,8.998 c 3.31,0 6.003,2.693 6.003,6.002 0,3.309 -2.693,6.002 -6.003,6.002 -3.31,0 -6.002,-2.693 -6.002,-6.002 0,-3.309 2.692,-6.002 6.002,-6.002 m 0,-1 c -3.867,0 -7.002,3.135 -7.002,7.002 0,3.868 3.135,7.002 7.002,7.002 3.868,0 7.003,-3.135 7.003,-7.002 0,-3.867 -3.135,-7.002 -7.003,-7.002 l 0,0 z"
               inkscape:connector-curvature="0" />
          </g>
          <g
             id="g14"
             display="inline"
             style="display:inline">
            <path
               id="path16"
               d="m 16,28 c 1.104,0 2,0.896 2,2 0,1.104 -0.896,2 -2,2 -1.104,0 -2,-0.896 -2,-2 0,-1.104 0.896,-2 2,-2 m 0,-1 c -1.654,0 -3,1.346 -3,3 0,1.654 1.346,3 3,3 1.654,0 3,-1.346 3,-3 0,-1.654 -1.346,-3 -3,-3 l 0,0 z"
               inkscape:connector-curvature="0" />
          </g>
          <g
             id="g18"
             display="inline"
             style="display:inline">
            <path
               id="path20"
               d="M 7.5,13 C 8.327,13 9,13.673 9,14.5 9,15.327 8.327,16 7.5,16 6.673,16 6,15.327 6,14.5 6,13.673 6.673,13 7.5,13 m 0,-1 C 6.119,12 5,13.119 5,14.5 5,15.881 6.119,17 7.5,17 8.881,17 10,15.881 10,14.5 10,13.119 8.881,12 7.5,12 l 0,0 z"
               inkscape:connector-curvature="0" />
          </g>
          <g
             id="g22"
             display="inline"
             style="display:inline">
            <path
               id="path24"
               d="M 24.5,13 C 25.327,13 26,13.673 26,14.5 26,15.327 25.327,16 24.5,16 23.673,16 23,15.327 23,14.5 23,13.673 23.673,13 24.5,13 m 0,-1 C 23.119,12 22,13.119 22,14.5 22,15.881 23.119,17 24.5,17 25.881,17 27,15.881 27,14.5 27,13.119 25.881,12 24.5,12 l 0,0 z"
               inkscape:connector-curvature="0" />
          </g>
          <g
             id="g26"
             display="inline"
             style="display:inline">
            <path
               id="path28"
               d="m 16,3 c 4.962,0 9,4.038 9,9 0,4.962 -4.038,9 -9,9 C 11.038,21 7,16.962 7,12 7,7.038 11.038,3 16,3 M 16,2 C 10.477,2 6,6.477 6,12 6,17.523 10.477,22 16,22 21.523,22 26,17.523 26,12 26,6.477 21.523,2 16,2 l 0,0 z"
               inkscape:connector-curvature="0" />
          </g>
          <circle
             id="circle30"
             r="1.0420001"
             cy="3"
             cx="11.958"
             stroke-miterlimit="10"
             display="inline"
             d="m 13,3 c 0,0.5754807 -0.466519,1.0420001 -1.042,1.0420001 -0.575481,0 -1.042,-0.4665194 -1.042,-1.0420001 0,-0.5754807 0.466519,-1.0420001 1.042,-1.0420001 C 12.533481,1.9579999 13,2.4245193 13,3 z"
             sodipodi:cx="11.958"
             sodipodi:cy="3"
             sodipodi:rx="1.0420001"
             sodipodi:ry="1.0420001"
             style="fill:none;stroke:#000000;stroke-linecap:round;stroke-miterlimit:10;display:inline" />
          <circle
             id="circle32"
             r="1.0420001"
             cy="3"
             cx="19.958"
             stroke-miterlimit="10"
             display="inline"
             d="m 21,3 c 0,0.5754807 -0.466519,1.0420001 -1.042,1.0420001 -0.575481,0 -1.042,-0.4665194 -1.042,-1.0420001 0,-0.5754807 0.466519,-1.0420001 1.042,-1.0420001 C 20.533481,1.9579999 21,2.4245193 21,3 z"
             sodipodi:cx="19.958"
             sodipodi:cy="3"
             sodipodi:rx="1.0420001"
             sodipodi:ry="1.0420001"
             style="fill:none;stroke:#000000;stroke-linecap:round;stroke-miterlimit:10;display:inline" />
          <circle
             id="circle34"
             r="11"
             cy="12"
             cx="16"
             stroke-miterlimit="10"
             display="inline"
             d="M 27,12 C 27,18.075132 22.075132,23 16,23 9.9248678,23 5,18.075132 5,12 5,5.9248678 9.9248678,1 16,1 22.075132,1 27,5.9248678 27,12 z"
             sodipodi:cx="16"
             sodipodi:cy="12"
             sodipodi:rx="11"
             sodipodi:ry="11"
             style="fill:none;stroke:#000000;stroke-linecap:round;stroke-miterlimit:10;display:inline" />
          <circle
             id="circle36"
             r="8"
             cy="11"
             cx="16"
             stroke-miterlimit="10"
             display="inline"
             d="m 24,11 c 0,4.418278 -3.581722,8 -8,8 -4.418278,0 -8,-3.581722 -8,-8 0,-4.418278 3.581722,-8 8,-8 4.418278,0 8,3.581722 8,8 z"
             sodipodi:cx="16"
             sodipodi:cy="11"
             sodipodi:rx="8"
             sodipodi:ry="8"
             style="fill:none;stroke:#000000;stroke-linecap:round;stroke-miterlimit:10;display:inline" />
        </g>
        <path
           id="path38"
           d="m 24.5,11.666 c -1.381,0 -2.5,1.119 -2.5,2.5 l 0.003,0.5 c 0,3.311 -2.693,6.003 -6.003,6.003 -3.31,0 -6.003,-2.692 -6.003,-6.003 L 10,14.166 c 0,-1.381 -1.119,-2.5 -2.5,-2.5 -1.381,0 -2.5,1.119 -2.5,2.5 v 0.5 c 0,5.035 3,9.28 8,10.586 v 4.414 c 0,1.654 1.346,3 3,3 1.654,0 3,-1.346 3,-3 l 0.001,-4.414 C 23.618,23.946 27,19.701 27,14.666 v -0.5 c 0,-1.381 -1.119,-2.5 -2.5,-2.5 z m 1.5,3 c 0,4.471 -2.946,8.271 -7,9.541 -0.719,0.225 -0.999,0.514 -0.999,1.264 0,0.301 -0.003,0.391 -0.003,0.391 L 18,29.666 c 0,1.105 -0.896,2 -2,2 -1.104,0 -2,-0.895 -2,-2 l 10e-4,-3.805 c 0,0 -0.003,-0.09 -0.003,-0.391 0,-0.75 -0.28,-1.039 -0.999,-1.264 -4.054,-1.27 -7,-5.07 -7,-9.541 v -0.5 c 0,-0.826 0.673,-1.5 1.5,-1.5 0.827,0 1.501,0.675 1.501,1.501 l -0.003,0.5 c 0,3.868 3.135,7.003 7.003,7.003 3.868,0 7.003,-3.135 7.003,-7.003 L 23,14.166 c 0,-0.826 0.673,-1.5 1.5,-1.5 0.827,0 1.5,0.674 1.5,1.5 v 0.5 z"
           inkscape:connector-curvature="0" />
        <g
           id="g40">
          <path
             id="path42"
             d="m 20,23.268 c -0.184,0 -0.361,-0.102 -0.449,-0.278 -0.123,-0.248 -0.021,-0.548 0.226,-0.67 0.347,-0.172 0.688,-0.371 1.014,-0.592 0.228,-0.155 0.539,-0.095 0.695,0.133 0.155,0.229 0.095,0.54 -0.133,0.695 -0.363,0.246 -0.744,0.468 -1.131,0.66 -0.072,0.035 -0.147,0.052 -0.222,0.052 z"
             inkscape:connector-curvature="0" />
        </g>
        <g
           id="g44">
          <path
             id="path46"
             d="m 22.751,21.167 c -0.118,0 -0.237,-0.042 -0.333,-0.126 -0.206,-0.184 -0.225,-0.5 -0.041,-0.706 1.389,-1.562 2.154,-3.575 2.154,-5.668 0,-0.276 0.224,-0.5 0.5,-0.5 0.276,0 0.5,0.224 0.5,0.5 0,2.339 -0.855,4.588 -2.407,6.333 -0.098,0.11 -0.235,0.167 -0.373,0.167 z"
             inkscape:connector-curvature="0" />
        </g>
        <path
           id="path48"
           d="M 20.003,1.666 C 20.508,1.852 21,2.452 21,3.004 c 0,0.553 -0.359,1.662 -1,1.662 -1.313,0 0,-2 -4,-2 -3.766,0 -2.875,2.012 -4,2.012 -0.552,0 -1,-1.121 -1,-1.674 0,-0.552 0.5,-1.104 1,-1.338 1.141,-0.531 2.588,-1 4,-1 1.414,0 2.752,0.541 4.003,1 z"
           inkscape:connector-curvature="0" />
        <path
           id="path50"
           d="M 7.228,9.693 C 7.614,7.983 8.487,6.457 9.696,5.266 9.506,4.967 9.352,4.646 9.239,4.318 7.671,5.764 6.57,7.701 6.176,9.889 6.513,9.783 6.863,9.717 7.228,9.693 z"
           inkscape:connector-curvature="0" />
        <path
           id="path52"
           d="M 25.824,9.889 C 25.43,7.707 24.333,5.772 22.771,4.328 22.663,4.66 22.515,4.986 22.324,5.287 c 1.199,1.188 2.063,2.706 2.448,4.406 0.365,0.024 0.715,0.09 1.052,0.196 z"
           inkscape:connector-curvature="0" />
      </g>
      <g
         id="flowRoot3983"
         style="font-size:110px;font-style:normal;font-weight:normal;line-height:125%;letter-spacing:0px;word-spacing:0px;fill:#000000;fill-opacity:1;stroke:none;font-family:Sans"
         transform="matrix(1.4184512,0,0,1.4184512,-131.54407,-233.7566)">
        <path
           id="path4087"
           d="m 273.65723,483.23323 0,9.23828 c -2.79302,-1.53966 -5.60389,-2.6855 -8.43262,-3.4375 -2.79301,-0.78771 -5.62179,-1.18159 -8.48633,-1.18164 -6.40953,5e-5 -11.38674,2.04107 -14.93164,6.12305 -3.54494,4.04626 -5.3174,9.73962 -5.31738,17.08007 -2e-5,7.34052 1.77244,13.05178 5.31738,17.13379 3.5449,4.04624 8.52211,6.06935 14.93164,6.06934 2.86454,1e-5 5.69332,-0.37597 8.48633,-1.12793 2.82873,-0.78775 5.6396,-1.95149 8.43262,-3.49121 l 0,9.13086 c -2.75722,1.28906 -5.6218,2.25586 -8.59375,2.90039 -2.93624,0.64453 -6.06938,0.96679 -9.39942,0.96679 -9.05927,0 -16.25653,-2.84667 -21.59179,-8.54003 -5.3353,-5.69335 -8.00294,-13.37401 -8.00293,-23.042 -1e-5,-9.81115 2.68553,-17.52762 8.05664,-23.14941 5.40688,-5.62169 12.80108,-8.43256 22.18261,-8.43262 3.04358,6e-5 6.01559,0.32233 8.91602,0.9668 2.90034,0.60878 5.71121,1.53977 8.43262,2.79297"
           inkscape:connector-curvature="0" />
        <path
           id="path4089"
           d="m 291.38184,460.88948 10.84961,0 0,71.05957 39.04785,0 0,9.13086 -49.89746,0 0,-80.19043"
           inkscape:connector-curvature="0" />
        <path
           id="path4091"
           d="m 379.52148,510.84065 c -7.98505,3e-5 -13.51727,0.91312 -16.59668,2.73926 -3.07944,1.8262 -4.61915,4.94143 -4.61914,9.3457 -10e-6,3.50913 1.14582,6.3021 3.4375,8.37891 2.32746,2.04102 5.47849,3.06153 9.45313,3.06152 5.47848,10e-6 9.86487,-1.93358 13.15918,-5.80078 3.33003,-3.90298 4.99507,-9.07713 4.99512,-15.52246 l 0,-2.20215 -9.82911,0 m 19.71192,-4.08203 0,34.32129 -9.88281,0 0,-9.13086 c -2.25591,3.65235 -5.06678,6.3558 -8.43262,8.11035 -3.36592,1.71875 -7.48376,2.57812 -12.35352,2.57812 -6.15887,0 -11.06447,-1.71874 -14.71679,-5.15625 -3.61655,-3.4733 -5.42482,-8.11033 -5.42481,-13.91113 -10e-6,-6.76755 2.25585,-11.87009 6.76758,-15.30762 4.54751,-3.43746 11.31508,-5.15621 20.30273,-5.15625 l 13.85743,0 0,-0.96679 c -5e-5,-4.54748 -1.50396,-8.0566 -4.51172,-10.52735 -2.97205,-2.50645 -7.1615,-3.75971 -12.56836,-3.75976 -3.43753,5e-5 -6.78551,0.41184 -10.04395,1.23535 -3.25848,0.82362 -6.39161,2.05897 -9.39941,3.70605 l 0,-9.13085 c 3.61652,-1.39643 7.12563,-2.43484 10.52734,-3.11524 3.40167,-0.71608 6.71384,-1.07416 9.93653,-1.07422 8.70113,6e-5 15.20014,2.25592 19.49707,6.76758 4.29682,4.51177 6.44525,11.35096 6.44531,20.51758"
           inkscape:connector-curvature="0" />
        <path
           id="path4093"
           d="m 418.62305,517.33967 0,-36.41601 9.88281,0 0,36.04004 c -2e-5,5.69337 1.11001,9.97234 3.33008,12.83691 2.22002,2.82879 5.5501,4.24317 9.99023,4.24316 5.33525,10e-6 9.5426,-1.70083 12.62207,-5.10253 3.11519,-3.40168 4.6728,-8.03872 4.67285,-13.91114 l 0,-34.10644 9.88282,0 0,60.15625 -9.88282,0 0,-9.23828 c -2.39913,3.65235 -5.1921,6.3737 -8.3789,8.16406 -3.15108,1.75456 -6.82133,2.63183 -11.01074,2.63183 -6.91084,0 -12.1566,-2.14843 -15.73731,-6.44531 -3.58074,-4.29686 -5.3711,-10.58104 -5.37109,-18.85254 m 24.86816,-37.86621 0,0"
           inkscape:connector-curvature="0" />
        <path
           id="path4095"
           d="m 539.47266,504.77131 0,36.3086 -9.88282,0 0,-35.98633 c -5e-5,-5.69332 -1.11007,-9.95438 -3.33007,-12.7832 -2.2201,-2.82873 -5.55018,-4.24311 -9.99024,-4.24317 -5.33532,6e-5 -9.54267,1.7009 -12.62207,5.10254 -3.07945,3.40174 -4.61916,8.03878 -4.61914,13.91113 l 0,33.99903 -9.93652,0 0,-60.15625 9.93652,0 0,9.3457 c 2.36326,-3.61648 5.13832,-6.31993 8.3252,-8.11035 3.22262,-1.7903 6.92867,-2.68549 11.11816,-2.68555 6.91076,6e-5 12.13862,2.1485 15.68359,6.44531 3.54487,4.26112 5.31733,10.5453 5.31739,18.85254"
           inkscape:connector-curvature="0" />
        <path
           id="path4097"
           d="m 602.58301,483.23323 0,9.23828 c -2.79302,-1.53966 -5.60389,-2.6855 -8.43262,-3.4375 -2.79301,-0.78771 -5.62178,-1.18159 -8.48633,-1.18164 -6.40953,5e-5 -11.38674,2.04107 -14.93164,6.12305 -3.54494,4.04626 -5.3174,9.73962 -5.31738,17.08007 -2e-5,7.34052 1.77244,13.05178 5.31738,17.13379 3.5449,4.04624 8.52211,6.06935 14.93164,6.06934 2.86455,1e-5 5.69332,-0.37597 8.48633,-1.12793 2.82873,-0.78775 5.6396,-1.95149 8.43262,-3.49121 l 0,9.13086 c -2.75721,1.28906 -5.6218,2.25586 -8.59375,2.90039 -2.93624,0.64453 -6.06938,0.96679 -9.39942,0.96679 -9.05927,0 -16.25653,-2.84667 -21.59179,-8.54003 -5.3353,-5.69335 -8.00294,-13.37401 -8.00293,-23.042 -1e-5,-9.81115 2.68554,-17.52762 8.05664,-23.14941 5.40688,-5.62169 12.80108,-8.43256 22.18261,-8.43262 3.04359,6e-5 6.01559,0.32233 8.91602,0.9668 2.90034,0.60878 5.71121,1.53977 8.43262,2.79297"
           inkscape:connector-curvature="0" />
        <path
           id="path4099"
           d="m 669.88281,504.77131 0,36.3086 -9.88281,0 0,-35.98633 c -5e-5,-5.69332 -1.11008,-9.95438 -3.33008,-12.7832 -2.2201,-2.82873 -5.55017,-4.24311 -9.99023,-4.24317 -5.33532,6e-5 -9.54267,1.7009 -12.62207,5.10254 -3.07945,3.40174 -4.61916,8.03878 -4.61914,13.91113 l 0,33.99903 -9.93653,0 0,-83.57422 9.93653,0 0,32.76367 c 2.36326,-3.61648 5.13832,-6.31993 8.32519,-8.11035 3.22263,-1.7903 6.92868,-2.68549 11.11817,-2.68555 6.91076,6e-5 12.13862,2.1485 15.68359,6.44531 3.54486,4.26112 5.31732,10.5453 5.31738,18.85254"
           inkscape:connector-curvature="0" />
      </g>
    </g>
  </g>
</svg>
